# xmcd CD database file
#
# Track frame offsets:
#	150
#	11747
#	28083
#	49255
#	64079
#	82611
#	94768
#	106360
#	128227
#	154369
#	173568
#
# Disc length: 2568 seconds
#
# Revision: 0
# Processed by: cddbd v1.5.2PL0 Copyright (c) Steve Scherf et al.
# Submitted via: CDex 1.70beta2
#
DISCID=850a060b
DTITLE=Eric Hughes Band - Drink Up
DYEAR=2013
DGENRE=Blues
TTITLE0=Drink Up!
TTITLE1=That's My Baby's Mama
TTITLE2=Blues Magician
TTITLE3=Frostina
TTITLE4=Tested Positive For the Blues
TTITLE5=Mama Don't Allow
TTITLE6=Repo Man
TTITLE7=Raining on Beale
TTITLE8=Going to Brownsville
TTITLE9=The Ballad of Weevil Point Willie
TTITLE10=My Baby Got a Black Cat
EXTD=YEAR: 2013
EXTT0=
EXTT1=
EXTT2=
EXTT3=
EXTT4=
EXTT5=
EXTT6=
EXTT7=
EXTT8=
EXTT9=
EXTT10=
PLAYORDER=
